<svg width="17" height="12" viewBox="0 0 17 12" fill="none" xmlns="http://www.w3.org/2000/svg">
<path d="M10.9 5.66423L16.4575 9.18V2L10.9 5.66423Z" fill="#9299A3"/>
<path d="M0 2.08946V9.26449L5.55745 5.75116L0 2.08946Z" fill="#9299A3"/>
<path d="M15.4545 0H1.03028C0.516157 0 0.108157 0.383273 0.0308838 0.876788L8.2424 6.28691L16.4539 0.876788C16.3766 0.383273 15.9686 0 15.4545 0Z" fill="#9299A3"/>
<path d="M10.3028 6.61209L8.79336 7.52614C8.70375 7.58008 8.60241 7.60656 8.5 7.60656C8.39759 7.60656 8.29625 7.58008 8.20664 7.52614L6.69716 6.61111L0 10.5056C0.0821411 10.9714 0.502447 11.3333 1.03263 11.3333H15.9674C16.4976 11.3333 16.9179 10.9714 17 10.5056L10.3028 6.61209Z" fill="#9299A3"/>
</svg>
