<svg width="16" height="14" viewBox="0 0 16 14" fill="none" xmlns="http://www.w3.org/2000/svg">
<path opacity="0.75" fill-rule="evenodd" clip-rule="evenodd" d="M8.65019 0.297872C8.24845 -0.0992908 7.64585 -0.0992908 7.34454 0.297872L0.213713 7.24823C-0.188024 7.64539 0.0128446 7.94326 0.515016 7.94326L2 8V13C2 14 2 14 3 14H5.5C5.77614 14 6 13.7761 6 13.5V10C6 8.89543 6.89543 8 8 8C9.10457 8 10 8.89543 10 10V13.5C10 13.7761 10.2239 14 10.5 14H13C14 14 14 14 14 13V8L15.5802 7.94326C15.9819 7.84397 16.1828 7.5461 15.781 7.24823L8.65019 0.297872Z" fill="#9299A3"/>
</svg>
