<svg width="18" height="18" viewBox="0 0 18 18" fill="none" xmlns="http://www.w3.org/2000/svg">
<path d="M0.384672 18C0.283157 18 0.184401 17.96 0.111161 17.8863C0.0146113 17.7891 -0.0226292 17.6479 0.0136459 17.5159L1.18893 13.2428C0.457222 11.9254 0.0714377 10.4351 0.0719893 8.92227C0.0740583 4.00246 4.09521 0 9.03606 0C11.4326 0.000961305 13.6844 0.930405 15.3769 2.61681C17.0691 4.30334 18.0007 6.54524 18 8.92941C17.9978 13.8494 13.9766 17.8521 9.03606 17.8521C9.03606 17.8521 9.03234 17.8521 9.0322 17.8521C7.58906 17.8515 6.15833 17.5014 4.88443 16.8381L0.482187 17.9875C0.449912 17.9959 0.417085 18 0.384672 18Z" fill="#E5E5E5"/>
<path d="M1.125 16.875L2.23749 12.8309C1.55126 11.6473 1.19031 10.3046 1.19081 8.92909C1.19258 4.62593 4.71034 1.125 9.03297 1.125C11.1306 1.12588 13.0995 1.93864 14.5802 3.41382C16.0607 4.88899 16.8758 6.84987 16.875 8.93537C16.8731 13.2384 13.3548 16.7398 9.03297 16.7398C9.03272 16.7398 9.03309 16.7398 9.03297 16.7398H9.02956C7.71712 16.7393 6.42762 16.4116 5.28222 15.7898L1.125 16.875ZM5.47474 14.377L5.71289 14.5174C6.71343 15.1085 7.86059 15.4212 9.03045 15.4218H9.03297C12.6254 15.4218 15.5493 12.5116 15.5508 8.93486C15.5515 7.20153 14.8742 5.57161 13.6436 4.34556C12.4128 3.11951 10.7765 2.44392 9.03536 2.44317C5.44006 2.44317 2.51624 5.35298 2.51486 8.92959C2.51435 10.1553 2.85879 11.3488 3.51136 12.3817L3.66643 12.6272L3.00781 15.0208L5.47474 14.377Z" fill="white"/>
<path d="M1.125 16.875L2.23757 12.8307C1.55115 11.6471 1.1903 10.3043 1.19069 8.92902C1.19239 4.62588 4.71034 1.125 9.03278 1.125C11.1307 1.12591 13.0998 1.9387 14.5801 3.41385C16.0608 4.88901 16.8758 6.84986 16.875 8.93513C16.8732 13.2384 13.3551 16.7397 9.03317 16.7397C9.03278 16.7397 9.0333 16.7397 9.03317 16.7397H9.02965C7.71725 16.7391 6.42759 16.4113 5.28223 15.7899L1.125 16.875Z" fill="#9299A3"/>
<path d="M0.383057 17.617L1.59485 13.1919C0.847366 11.8967 0.454193 10.4276 0.454742 8.92245C0.456665 4.21385 4.28842 0.383057 8.99689 0.383057C11.2818 0.384018 13.4264 1.27336 15.0392 2.88753C16.6519 4.50169 17.5397 6.64732 17.5389 8.92932C17.5368 13.6378 13.7045 17.4691 8.99689 17.4691C8.99661 17.4691 8.99702 17.4691 8.99689 17.4691H8.99318C7.56358 17.4686 6.15898 17.11 4.91135 16.4296L0.383057 17.617ZM5.12105 14.8836L5.38046 15.0373C6.47031 15.6841 7.71986 16.0262 8.99414 16.0269H8.99689C12.9099 16.0269 16.0949 12.8425 16.0965 8.92877C16.0972 7.03212 15.3595 5.24863 14.019 3.90706C12.6784 2.56549 10.896 1.82625 8.9995 1.82542C5.08328 1.82542 1.89848 5.0094 1.89697 8.923C1.89642 10.2642 2.27161 11.5702 2.98242 12.7004L3.15134 12.969L2.43393 15.5881L5.12105 14.8836Z" fill="white"/>
<path fill-rule="evenodd" clip-rule="evenodd" d="M6.86195 5.35237C6.7021 4.99696 6.53374 4.98982 6.38158 4.98364C6.25716 4.97828 6.11475 4.97856 5.97261 4.97856C5.83034 4.97856 5.59908 5.03211 5.40352 5.24566C5.20782 5.45921 4.65631 5.97557 4.65631 7.02572C4.65631 8.07601 5.42123 9.09074 5.52794 9.23329C5.63464 9.3757 7.0045 11.5996 9.17389 12.4552C10.9769 13.1663 11.3437 13.0248 11.7351 12.9892C12.1265 12.9537 12.9978 12.4729 13.1757 11.9745C13.3536 11.4761 13.3536 11.0491 13.3002 10.9597C13.2468 10.8708 13.1045 10.8174 12.8911 10.7107C12.6777 10.604 11.6284 10.0875 11.4327 10.0163C11.237 9.94506 11.0947 9.90963 10.9524 10.1233C10.81 10.3367 10.4013 10.8174 10.2768 10.9597C10.1522 11.1023 10.0277 11.1202 9.81425 11.0133C9.60085 10.9064 8.91338 10.6811 8.09792 9.95399C7.46346 9.38833 7.03499 8.6896 6.91043 8.47592C6.78601 8.26251 6.90837 8.15704 7.00423 8.04045C7.17685 7.83047 7.46648 7.45295 7.53761 7.31068C7.60875 7.16813 7.57318 7.04357 7.5199 6.93673C7.46648 6.83003 7.05161 5.77452 6.86195 5.35237Z" fill="white"/>
</svg>
