<svg width="12" height="12" viewBox="0 0 12 12" fill="none" xmlns="http://www.w3.org/2000/svg">
<path d="M3.63949 5.20924H1.28251C1.06615 5.20924 0.891218 5.38418 0.888916 5.60284V11.4953C0.888916 11.7139 1.06615 11.8889 1.28251 11.8889H3.63949C3.85815 11.8889 4.03309 11.7116 4.03309 11.4953V5.60284C4.03309 5.38418 3.85585 5.20924 3.63949 5.20924Z" fill="#9299A3"/>
<path d="M7.56857 0.888885H5.21159C4.99523 0.888885 4.81799 1.06382 4.81799 1.28018V11.4953C4.81799 11.7139 4.99523 11.8889 5.21159 11.8889H7.56857C7.78723 11.8889 7.96216 11.7116 7.96216 11.4953V1.28248C7.96216 1.06382 7.78493 0.888885 7.56857 0.888885Z" fill="#9299A3"/>
<path d="M11.4976 4.03078H9.14067C8.922 4.03078 8.74707 4.20571 8.74707 4.42437V11.4953C8.74707 11.714 8.9243 11.8889 9.14067 11.8889H11.4976C11.7163 11.8889 11.8912 11.7117 11.8912 11.4953V4.42437C11.8912 4.20571 11.714 4.03078 11.4976 4.03078Z" fill="#9299A3"/>
</svg>
