<svg width="10" height="10" viewBox="0 0 10 10" fill="none" xmlns="http://www.w3.org/2000/svg">
<path d="M9.40243 7.5048L9.4019 7.50426L6.95676 5.34087C6.84332 5.2404 6.67156 5.2458 6.56433 5.35275L6.16124 5.75583L5.66143 5.25604L6.55203 4.17191C7.38391 4.60291 8.43254 4.46963 9.13071 3.77165C9.67881 3.22357 9.87875 2.45894 9.73037 1.75312C9.68664 1.54477 9.42901 1.468 9.27853 1.61868L8.34047 2.55672C8.17012 2.72706 7.89398 2.72706 7.72363 2.55672C7.54175 2.37483 7.40287 2.23598 7.22099 2.05409C7.05064 1.88375 7.05064 1.60762 7.22099 1.43746L8.15905 0.499232C8.30972 0.348746 8.23295 0.0911426 8.0246 0.0474098C7.31877 -0.100976 6.55411 0.0989724 6.00602 0.647045C5.30801 1.34522 5.17471 2.39383 5.60574 3.22567L4.52159 4.11626L2.31079 1.90546L2.55562 1.66065C2.65626 1.55946 2.64591 1.39436 2.53509 1.30659L1.26816 0.263572C1.17363 0.188768 1.03832 0.196598 0.952976 0.281943L0.281993 0.952926C0.196647 1.03827 0.188818 1.17358 0.263622 1.26809L1.30679 2.53485C1.39634 2.64792 1.56203 2.65421 1.66072 2.55551L1.90568 2.31055L4.07681 4.48163L0.290453 7.59194C-0.0678116 7.87324 -0.0995131 8.40413 0.222467 8.72628C0.310314 8.81413 0.963441 9.46724 1.05129 9.55508C1.37346 9.87706 1.90436 9.84536 2.18567 9.4871L5.29604 5.70083L5.75615 6.16092L5.3374 6.57967C5.22991 6.68744 5.22519 6.86013 5.32673 6.97357L7.50974 9.40744C7.94128 9.88612 8.68212 9.90145 9.13356 9.44944L9.44968 9.13332C9.90478 8.67823 9.8829 7.9321 9.40243 7.5048ZM1.64636 8.41769C1.488 8.41769 1.3599 8.28937 1.3599 8.13123C1.3599 7.97291 1.48823 7.84477 1.64636 7.84477C1.80418 7.84477 1.93282 7.97243 1.93282 8.13123C1.93282 8.28935 1.80468 8.41769 1.64636 8.41769Z" fill="#9299A3"/>
</svg>
