<svg width="10" height="10" viewBox="0 0 10 10" fill="none" xmlns="http://www.w3.org/2000/svg">
<path d="M7.93371 2.38287V1.22904C7.93371 0.870157 7.80736 0.543094 7.58811 0.329583C7.39116 0.138789 7.14032 0.0683894 6.90063 0.136523L1.33205 1.72873C1.03849 1.82186 0.930721 2.14438 0.893555 2.45783C1.00689 2.40787 1.12767 2.38287 1.25402 2.38287H7.93371Z" fill="#9299A3"/>
<path d="M7.15125 6.2121C7.15125 6.64342 7.47484 6.99434 7.87277 6.99434H9.49796V5.42986H7.87277C7.47484 5.42986 7.15125 5.78078 7.15125 6.2121ZM8.23529 6.2121C8.23529 6.32011 8.15461 6.40766 8.05491 6.40766H7.69415C7.59444 6.40766 7.51377 6.32011 7.51377 6.2121C7.51377 6.10411 7.59444 6.01654 7.69415 6.01654H8.05491C8.15461 6.01654 8.23529 6.10411 8.23529 6.2121Z" fill="#9299A3"/>
<path d="M9.49796 3.6388C9.49796 3.20271 9.14392 2.84873 8.70773 2.84873H0.901317C0.465124 2.84873 0.111084 3.20271 0.111084 3.6388V9.09884C0.111084 9.53297 0.465124 9.88889 0.901317 9.88889H8.70773C9.14392 9.88889 9.49796 9.53297 9.49796 9.09884V7.34606H7.73564C7.08848 7.34606 6.56204 6.81973 6.56204 6.1727C6.56204 5.52568 7.08848 4.99934 7.73564 4.99934H9.49796V3.6388Z" fill="#9299A3"/>
</svg>
