<svg width="18" height="18" viewBox="0 0 18 18" fill="none" xmlns="http://www.w3.org/2000/svg">
<path d="M12.7657 4.2552C13.0422 4.53168 13.0422 4.97994 12.7657 5.25643L9.51172 8.5104L12.7657 11.7644C13.0422 12.0409 13.0422 12.4891 12.7657 12.7656C12.4892 13.0421 12.041 13.0421 11.7645 12.7656L8.5105 9.51162L5.25648 12.7656C4.98 13.0421 4.53174 13.0421 4.25526 12.7656C3.97878 12.4892 3.97878 12.0409 4.25526 11.7644L7.50877 8.5099L4.2553 5.25642C3.97882 4.97994 3.97882 4.53168 4.2553 4.2552C4.53178 3.97872 4.98004 3.97872 5.25652 4.2552L8.51 7.50867L11.7645 4.2552C12.041 3.97872 12.4892 3.97872 12.7657 4.2552Z" fill="#9299A3"/>
</svg>
