<svg width="19" height="19" viewBox="0 0 19 19" fill="none" xmlns="http://www.w3.org/2000/svg">
<path d="M9.5 19C14.7467 19 19 14.7467 19 9.5C19 4.25329 14.7467 0 9.5 0C4.25329 0 0 4.25329 0 9.5C0 14.7467 4.25329 19 9.5 19Z" fill="#9299A3"/>
<path d="M4.46563 9.30268L13.334 6.03991C13.7456 5.89802 14.1051 6.13572 13.9717 6.72962L12.4625 13.517C12.3506 13.9983 12.0509 14.1153 11.6316 13.8885L9.33212 12.2714L8.223 13.291C8.10036 13.408 7.99688 13.5068 7.75927 13.5068L7.92253 11.2738L12.1843 7.59998C12.3697 7.44419 12.1429 7.35643 11.8984 7.51148L6.63175 10.6755L4.36138 9.9997C3.86853 9.85049 3.85779 9.52941 4.46563 9.30268Z" fill="#EBEDF0"/>
</svg>
